<?xml version="1.0" encoding="utf-8"?>
<!-- Generator: Adobe Illustrator 16.0.3, SVG Export Plug-In . SVG Version: 6.00 Build 0)  -->
<!DOCTYPE svg PUBLIC "-//W3C//DTD SVG 1.1//EN" "http://www.w3.org/Graphics/SVG/1.1/DTD/svg11.dtd">
<svg version="1.1" id="Capa_1" xmlns="http://www.w3.org/2000/svg" xmlns:xlink="http://www.w3.org/1999/xlink" x="0px" y="0px"
	 width="566.929px" height="566.929px" viewBox="0 0 566.929 566.929" enable-background="new 0 0 566.929 566.929"
	 xml:space="preserve">
<g>
	<path fill="#3FA8CD" d="M383.857,262.172c-15.533,0-29.205,8.5-37.135,21.309h74.236
		C412.996,270.673,399.357,262.172,383.857,262.172z"/>
	<path fill="#3FA8CD" d="M222.459,231.123c0-11.404-9.266-20.705-20.688-20.705h-63.076v41.411h63.076
		C213.193,251.829,222.459,242.528,222.459,231.123z"/>
	<path fill="#3FA8CD" d="M213.127,294.086h-11.355h-63.076v59.961h74.432c16.543,0,29.988-13.444,29.988-29.972
		C243.115,307.548,229.67,294.086,213.127,294.086z"/>
	<path fill="#3FA8CD" d="M283.482,14.17C134.746,14.17,14.17,134.744,14.17,283.481c0,148.736,120.576,269.277,269.313,269.277
		c148.703,0,269.277-120.541,269.277-269.277C552.76,134.744,432.186,14.17,283.482,14.17z M336.508,183.626
		c0-3.573,2.904-6.477,6.492-6.477h76.85c3.592,0,6.496,2.904,6.496,6.477v19.287c0,3.589-2.904,6.477-6.496,6.477H343
		c-3.588,0-6.492-2.888-6.492-6.477V183.626z M212.213,396.305H104.627c-4.504,0-8.191-3.654-8.191-8.174v-211.78
		c0-4.553,3.688-8.191,8.191-8.191h96.295c34.525,0,63.209,27.428,63.797,61.903c0.195,12.906-3.494,24.914-9.953,34.999
		c18.566,13.166,30.707,34.832,30.609,59.307C285.211,364.278,252.123,396.305,212.213,396.305z M470.494,311.12
		c0,4.665-3.818,8.468-8.484,8.468H340.521c4.406,21.13,22.156,36.94,43.336,36.94c11.193,0,21.047-3.688,29.107-11.52
		c0.652-0.654,1.568-1.027,2.514-1.027l42.584,0.113c2.707,0,4.471,2.822,3.295,5.271c-1.6,3.311-3.457,6.559-5.447,9.658
		c-16.121,24.898-43.076,39.762-72.053,39.762c-47.807,0-86.67-40.104-86.67-89.429c0-49.322,38.863-89.475,86.67-89.475
		c47.773,0,86.637,40.153,86.637,89.475V311.12z"/>
</g>
</svg>
