<?xml version="1.0" encoding="utf-8"?>
<!-- Generator: Adobe Illustrator 16.0.3, SVG Export Plug-In . SVG Version: 6.00 Build 0)  -->
<!DOCTYPE svg PUBLIC "-//W3C//DTD SVG 1.1//EN" "http://www.w3.org/Graphics/SVG/1.1/DTD/svg11.dtd">
<svg version="1.1" id="Capa_1" xmlns="http://www.w3.org/2000/svg" xmlns:xlink="http://www.w3.org/1999/xlink" x="0px" y="0px"
	 width="566.929px" height="566.929px" viewBox="0 0 566.929 566.929" enable-background="new 0 0 566.929 566.929"
	 xml:space="preserve">
<g>
	<path fill="#3FA8CD" d="M367.361,217.923c-10.541,0-19.057-8.5-19.057-18.959c0-10.458,8.516-18.925,19.057-18.925
		c10.508,0,19.023,8.467,19.023,18.925C386.385,209.423,377.869,217.923,367.361,217.923L367.361,217.923z M282.615,364.277
		c-45.031,0-81.547-36.27-81.547-81.058c0-44.771,36.516-81.057,81.547-81.057c45.033,0,81.514,36.287,81.514,81.057
		C364.129,328.007,327.648,364.277,282.615,364.277L282.615,364.277z M406.389,190.121c-2.904-7.375-6.33-12.629-11.912-18.144
		c-5.547-5.515-10.834-8.925-18.238-11.813c-5.582-2.154-14-4.716-29.5-5.401c-16.74-0.783-21.732-0.946-64.123-0.946
		c-42.389,0-47.412,0.164-64.152,0.946c-15.502,0.686-23.889,3.247-29.5,5.401c-7.408,2.888-12.695,6.298-18.242,11.813
		s-9.008,10.769-11.877,18.144c-2.188,5.579-4.766,13.934-5.482,29.32c-0.75,16.658-0.914,21.634-0.914,63.778
		c0,42.145,0.164,47.154,0.914,63.795c0.717,15.387,3.295,23.756,5.482,29.303c2.869,7.375,6.33,12.646,11.877,18.127
		c5.547,5.547,10.834,8.99,18.242,11.845c5.611,2.138,13.998,4.748,29.5,5.434c16.74,0.733,21.764,0.913,64.152,0.913
		c42.391,0,47.383-0.18,64.123-0.913c15.5-0.686,23.918-3.296,29.5-5.434c7.404-2.855,12.691-6.298,18.238-11.845
		c5.582-5.482,9.008-10.752,11.912-18.127c2.152-5.547,4.73-13.917,5.416-29.303c0.783-16.642,0.98-21.651,0.98-63.795
		c0-42.144-0.197-47.12-0.98-63.778C411.119,204.055,408.541,195.7,406.389,190.121L406.389,190.121z"/>
	<path fill="#3FA8CD" d="M282.615,230.617c-29.238,0-52.928,23.56-52.928,52.602c0,29.058,23.689,52.62,52.928,52.62
		c29.207,0,52.896-23.562,52.896-52.62C335.512,254.177,311.822,230.617,282.615,230.617L282.615,230.617z"/>
	<path fill="#3FA8CD" d="M440.424,348.304c-0.783,16.806-3.459,28.276-7.406,38.31c-4.049,10.41-9.465,19.188-18.307,27.965
		c-8.811,8.778-17.656,14.178-28.131,18.208c-10.084,3.917-21.602,6.576-38.506,7.327c-16.936,0.767-22.352,0.962-65.459,0.962
		c-43.139,0-48.523-0.196-65.459-0.962c-16.902-0.75-28.455-3.41-38.537-7.327c-10.443-4.03-19.287-9.431-28.129-18.208
		c-8.844-8.777-14.26-17.555-18.309-27.965c-3.916-10.034-6.623-21.504-7.373-38.31c-0.783-16.821-0.945-22.223-0.945-65.084
		c0-42.845,0.162-48.262,0.945-65.068c0.75-16.821,3.457-28.275,7.373-38.31c4.049-10.409,9.465-19.187,18.309-27.965
		c8.842-8.778,17.686-14.194,28.129-18.192c10.082-3.915,21.635-6.607,38.537-7.374c16.936-0.735,22.32-0.947,65.459-0.947
		c43.107,0,48.523,0.212,65.459,0.947c16.904,0.766,28.422,3.458,38.506,7.374c10.475,3.998,19.32,9.415,28.131,18.192
		c8.842,8.778,14.258,17.557,18.307,27.965c3.947,10.035,6.623,21.489,7.406,38.31c0.75,16.806,0.945,22.223,0.945,65.068
		C441.369,326.081,441.174,331.482,440.424,348.304L440.424,348.304z M283.465,14.17c-148.736,0-269.313,120.542-269.313,269.278
		s120.576,269.311,269.313,269.311c148.734,0,269.311-120.575,269.311-269.311S432.199,14.17,283.465,14.17L283.465,14.17z"/>
</g>
</svg>
