<?xml version="1.0" encoding="utf-8"?>
<!-- Generator: Adobe Illustrator 16.0.3, SVG Export Plug-In . SVG Version: 6.00 Build 0)  -->
<!DOCTYPE svg PUBLIC "-//W3C//DTD SVG 1.1//EN" "http://www.w3.org/Graphics/SVG/1.1/DTD/svg11.dtd">
<svg version="1.1" id="Capa_1" xmlns="http://www.w3.org/2000/svg" xmlns:xlink="http://www.w3.org/1999/xlink" x="0px" y="0px"
	 width="566.929px" height="566.929px" viewBox="0 0 566.929 566.929" enable-background="new 0 0 566.929 566.929"
	 xml:space="preserve">
<path fill="#3FA8CD" d="M208.254,362.396c-4.864-21.543-6.869-43.438-8.085-65.422c-0.188-3.4-1.287-4.448-4.698-4.387
	c-11.275,0.203-22.557,0.077-33.835,0.077c0-0.025,0-0.049,0-0.074c-11.56,0-23.12,0.04-34.68-0.027
	c-2.892-0.017-4.446,0.711-3.852,4.05c0.552,3.103,0.628,6.288,1.058,9.418c3.396,24.705,12.384,47.246,26.24,67.927
	c1.976,2.948,4.094,3.795,7.63,2.848c15.033-4.021,30.312-6.849,45.783-8.566C208.862,367.678,209.347,367.233,208.254,362.396z"/>
<path fill="#3FA8CD" d="M173.863,170.042c12.378,2.703,24.915,4.351,37.462,5.957c3.271,0.42,4.974-0.759,6.112-3.911
	c3.65-10.096,7.822-19.988,13.276-29.268c2.685-4.565,5.618-8.986,8.909-14.223c-8.178,1.997-15.128,4.81-22.01,7.859
	c-16.517,7.321-31.168,17.419-44.388,29.663C171.508,167.712,169.995,169.198,173.863,170.042z"/>
<path fill="#3FA8CD" d="M128.033,274.204c11.139-0.166,22.281-0.06,33.422-0.062c9.491,0,18.982,0.08,28.472-0.019
	c12.2-0.126,9.931,1.688,10.672-10.387c1.337-21.739,3.821-43.255,8.954-64.426c0.825-3.401,0.012-4.676-3.509-5.077
	c-15.44-1.761-30.788-4.146-45.816-8.197c-2.966-0.8-4.816-0.184-6.638,2.303c-17.666,24.113-27.708,51.039-30.479,80.793
	C122.703,273.519,124.241,274.261,128.033,274.204z"/>
<path fill="#3FA8CD" d="M239.126,178.416c15.091,0.623,30.181,1.253,45.235,1.88c14.462-0.621,28.864-1.269,43.27-1.831
	c2.656-0.104,3.936-0.816,2.809-3.72c-6.368-16.395-14.063-31.934-27.416-43.992c-11.57-10.45-24.836-11.327-37.014-1.622
	c-15.057,11.997-23.05,28.73-29.689,46.231C235.285,178.088,237.148,178.334,239.126,178.416z"/>
<path fill="#3FA8CD" d="M343.301,292.58c-19.939,0.066-39.878,0.034-60.4,0.034c-1.465,0.232-3.512,0.177-5.576,0.163
	c-18.002-0.125-36.007-0.078-54.011-0.229c-3.336-0.028-4.419,1.323-4.172,4.435c0.347,4.382,0.558,8.776,0.822,13.166
	c1.061,17.603,3.693,34.972,7.636,52.157c0.629,2.744,1.941,3.197,4.658,3.035c13.438-0.799,26.893-1.445,40.35-1.848
	c19.941-0.597,39.847,0.637,59.752,1.611c6.202,0.304,6.246,0.288,7.638-5.758c4.736-20.567,6.769-41.469,7.737-62.509
	C347.889,293.475,346.359,292.571,343.301,292.58z"/>
<path fill="#3FA8CD" d="M347.828,269.447c-0.346-3.274-0.623-6.564-0.754-9.855c-0.779-19.72-3.94-39.083-8.406-58.274
	c-0.805-3.459-2.276-4.753-5.967-4.399c-7.65,0.734-15.348,1.391-23.025,1.379c-25.15-0.036-50.333,1.21-75.433-1.491
	c-2.899-0.313-4.966,0.324-5.796,3.684c-5.568,22.516-8.166,45.417-9.361,68.528c-0.208,3.996,1.219,5.222,5.16,5.191
	c19.67-0.157,39.343-0.072,59.015-0.072c0-0.004,0-0.008,0-0.012c19.94,0,39.885-0.067,59.824,0.063
	C346.664,274.209,348.212,273.081,347.828,269.447z"/>
<path fill="#3FA8CD" d="M349.794,172.841c0.995,2.705,2.213,3.571,5.061,3.258c12.287-1.354,24.499-3.135,36.597-5.677
	c1.408-0.296,3.509,0.105,3.972-1.541c0.447-1.59-1.438-2.492-2.496-3.472c-15.183-14.051-32.409-24.88-51.687-32.384
	c-4.282-1.666-8.581-3.43-13.634-4.127c0.411,0.899,0.554,1.429,0.856,1.84C337.887,143.6,344.332,157.988,349.794,172.841z"/>
<path fill="#3FA8CD" d="M439.514,292.53c-11.413,0.149-22.83,0.058-34.244,0.058c0,0.025,0,0.052,0,0.077
	c-11.675,0-23.35,0.04-35.023-0.03c-2.561-0.016-3.278,1.186-3.396,3.516c-1.142,22.534-3.349,44.946-8.402,66.981
	c-0.808,3.525,0.352,4.755,3.678,5.107c16.157,1.71,32.098,4.656,47.788,8.872c2.693,0.725,4.469,0.215,5.891-2.152
	c2.971-4.948,6.223-9.738,9.011-14.787c10.85-19.658,17.11-40.708,18.944-63.106C444.049,293.538,442.945,292.486,439.514,292.53z"
	/>
<path fill="#3FA8CD" d="M211.52,386.444c-13.41,1.408-26.727,3.365-39.856,6.466c-1.268,0.299-3.157-0.091-3.604,1.449
	c-0.431,1.493,1.255,2.298,2.185,3.228c13.464,13.456,28.955,24.045,46.161,32.089c7.185,3.357,14.567,6.308,23.495,8.437
	c-11.459-15.693-18.868-32.027-24.383-49.271C214.84,386.721,213.677,386.216,211.52,386.444z"/>
<path fill="#3FA8CD" d="M283.465,14.17c-148.736,0-269.313,120.542-269.313,269.278s120.576,269.311,269.313,269.311
	c148.734,0,269.311-120.575,269.311-269.311S432.199,14.17,283.465,14.17z M283.229,463.374
	c-99.588-0.657-179.86-80.764-179.61-180.421c0.248-99.296,80.411-179.693,180.488-179.396
	c99.383,0.295,179.82,80.844,179.199,181.1C462.697,383.016,383.154,462.903,283.229,463.374z"/>
<path fill="#3FA8CD" d="M408.234,185.709c-15.829,4.237-31.956,6.884-48.214,8.788c-2.65,0.311-3.456,1.528-2.782,4.179
	c5.855,23.008,8.213,46.512,9.428,70.134c0.232,4.533,1.871,5.481,5.94,5.401c10.995-0.214,21.997-0.073,32.997-0.071
	c11.412,0,22.823-0.062,34.235,0.039c3.189,0.028,4.298-0.911,4.005-4.337c-0.843-9.9-2.526-19.624-5.156-29.186
	c-5.232-19.024-13.59-36.542-25.449-52.349C412.004,186.665,410.905,184.995,408.234,185.709z"/>
<path fill="#3FA8CD" d="M328.912,384.095c-15.232-0.93-30.468-1.697-45.732-1.555c-15.132-0.171-30.227,0.647-45.324,1.535
	c-2.606,0.152-3.95,0.684-2.851,3.65c6.391,17.261,13.813,33.867,27.495,46.885c13.457,12.804,28.541,12.771,42.029-0.104
	c13.66-13.038,21.063-29.658,27.432-46.924C333.146,384.376,331.268,384.24,328.912,384.095z"/>
<path fill="#3FA8CD" d="M395.883,393.036c-13.402-3.103-26.981-5.039-40.63-6.598c-2.26-0.257-3.257,0.52-3.894,2.545
	c-1.076,3.402-2.264,6.774-3.522,10.114c-5.103,13.528-11.466,26.404-20.489,38.541c1.232,0,1.658,0.097,2.023-0.014
	c26.035-7.836,48.594-21.478,67.917-40.572C399.991,394.381,398.727,393.693,395.883,393.036z"/>
</svg>
