<?xml version="1.0" encoding="utf-8"?>
<!-- Generator: Adobe Illustrator 16.0.3, SVG Export Plug-In . SVG Version: 6.00 Build 0)  -->
<!DOCTYPE svg PUBLIC "-//W3C//DTD SVG 1.1//EN" "http://www.w3.org/Graphics/SVG/1.1/DTD/svg11.dtd">
<svg version="1.1" id="Capa_1" xmlns="http://www.w3.org/2000/svg" xmlns:xlink="http://www.w3.org/1999/xlink" x="0px" y="0px"
	 width="566.929px" height="566.929px" viewBox="0 0 566.929 566.929" enable-background="new 0 0 566.929 566.929"
	 xml:space="preserve">
<g>
	<path fill-rule="evenodd" clip-rule="evenodd" fill="#3FA8CD" d="M360.802,333.448c-3.294,9.154-18.894,17.507-26.433,18.617
		c-6.753,0.995-15.302,1.436-24.669-1.55c-5.677-1.795-12.987-4.193-22.32-8.255c-39.287-16.953-64.937-56.502-66.895-59.097
		c-1.958-2.611-15.989-21.211-15.989-40.496c0-19.27,10.115-28.732,13.705-32.648s7.832-4.879,10.442-4.879
		c2.611,0,5.221,0,7.507,0.131c2.38,0.098,5.611-0.946,8.809,6.722c3.265,7.832,11.096,27.084,12.074,29.026
		c0.979,1.975,1.599,4.258,0.326,6.886c-1.305,2.594-1.958,4.226-3.916,6.526c-1.959,2.284-4.145,5.106-5.907,6.853
		c-1.925,1.941-3.979,4.063-1.696,7.978c2.285,3.916,10.149,16.757,21.798,27.134c14.947,13.33,27.574,17.441,31.491,19.416
		c3.916,1.974,6.199,1.632,8.482-0.963c2.285-2.643,9.791-11.453,12.402-15.369c2.61-3.916,5.22-3.247,8.809-1.941
		c3.591,1.322,22.811,10.785,26.76,12.727c3.916,1.941,6.526,2.953,7.472,4.584C364.065,316.463,364.065,324.312,360.802,333.448
		L360.802,333.448z M284.184,147.283c-71.855,0-130.301,58.395-130.332,130.185c0,24.621,6.885,48.572,19.938,69.31l3.1,4.911
		l-13.151,48.067l49.273-12.955l4.765,2.839c20.005,11.861,42.911,18.126,66.274,18.143h0.1
		c71.789,0,130.201-58.411,130.233-130.201c0-34.802-13.509-67.532-38.113-92.12C351.666,160.842,318.969,147.283,284.184,147.283
		L284.184,147.283z"/>
	<path fill-rule="evenodd" clip-rule="evenodd" fill="#3FA8CD" d="M284.15,434.248h-0.1c-26.234-0.033-51.98-6.591-74.889-19.073
		l-83.08,21.814l22.254-81.237c-13.738-23.723-20.917-50.693-20.917-78.284c0.033-86.377,70.323-156.65,156.7-156.65
		c41.931,0.017,81.285,16.316,110.85,45.946c29.598,29.613,45.88,68.951,45.846,110.818
		C440.782,363.959,370.494,434.248,284.15,434.248L284.15,434.248z M283.465,14.684c-148.443,0-268.789,120.33-268.789,268.755
		c0,148.46,120.346,268.806,268.789,268.806c148.441,0,268.788-120.346,268.788-268.806
		C552.253,135.014,431.906,14.684,283.465,14.684L283.465,14.684z"/>
</g>
</svg>
